<svg xmlns="http://www.w3.org/2000/svg" width="267.365" height="182.645" viewBox="0 0 267.365 182.645">
  <g id="Grupo_6" data-name="Grupo 6" transform="translate(-103.08 -420.502)">
    <g id="Grupo_4" data-name="Grupo 4" transform="translate(2)">
      <path id="Caminho_6" data-name="Caminho 6" d="M3572.769,3039.322s-16.751-10.472-5.575-27.468,30.407-4.553,30.407-4.553l66.05,37.415s20.3,9.5,11.156,27.609-29.3,8.026-29.3,8.026Z" transform="matrix(-0.53, 0.848, -0.848, -0.53, 4664.342, -967.57)" fill="#ea4335"/>
      <path id="Caminho_5" data-name="Caminho 5" d="M3572.769,3039.322s-16.751-10.472-5.575-27.468,30.407-4.553,30.407-4.553l66.05,37.415s20.3,9.5,11.156,27.609-29.3,8.026-29.3,8.026Z" transform="translate(-3457 -2511)" fill="#4285f4"/>
    </g>
    <g id="Grupo_5" data-name="Grupo 5" transform="translate(471.524 1023.65) rotate(180)">
      <path id="Caminho_6-2" data-name="Caminho 6" d="M3572.769,3039.322s-16.751-10.472-5.575-27.468,30.407-4.553,30.407-4.553l66.05,37.415s20.3,9.5,11.156,27.609-29.3,8.026-29.3,8.026Z" transform="matrix(-0.53, 0.848, -0.848, -0.53, 4664.342, -967.57)" fill="#fbbc04"/>
      <path id="Caminho_5-2" data-name="Caminho 5" d="M3572.769,3039.322s-16.751-10.472-5.575-27.468,30.407-4.553,30.407-4.553l66.05,37.415s20.3,9.5,11.156,27.609-29.3,8.026-29.3,8.026Z" transform="translate(-3457 -2511)" fill="#0f9d58"/>
    </g>
  </g>
</svg>
